# xmcd CD database file generated by Grip 2.92
# 
# Track frame offsets:
#       150
#       10356
#       27738
#       44196
#       69981
#       93165
#       113206
#       137617
#       154351
#       172998
#       196591
#       218469
#       235187
# 
# Disc length: 4154 seconds
# 
# Revision: 3
# Processed by: cddbd v1.4b41PL1 Copyright (c) Steve Scherf et al.
# Submitted via: Grip 2.92
# 
DISCID=ac10380d
DTITLE=Moe's Kitchen - Grooveprint
DYEAR=1900
DGENRE=
TTITLE0=Intro Allegro
TTITLE1=Groove Takes Over
TTITLE2=Life is Funky
TTITLE3=Don't Need That Thing
TTITLE4=Nature Wins Again
TTITLE5=What Goes Around Gets Around
TTITLE6=Livin' For The Party
TTITLE7=But I Want You
TTITLE8=When You Touch Me
TTITLE9=Feel Like A Beginner
TTITLE10=Going To The Other Side
TTITLE11=Hidden #1
TTITLE12=Hidden #2
EXTD=
EXTT0=
EXTT1=
EXTT2=
EXTT3=
EXTT4=
EXTT5=
EXTT6=
EXTT7=
EXTT8=
EXTT9=
EXTT10=
EXTT11=
EXTT12=
PLAYORDER=
